<svg width="41" height="42" viewBox="0 0 41 42" fill="none" xmlns="http://www.w3.org/2000/svg">
<path d="M0 0.5V0.940445C9.53542 5.27149 19.0759 11.5851 25.4386 18.4111C25.2608 18.7165 25.0808 19.0207 24.8986 19.3235C17.129 13.6449 8.38464 9.55051 0 6.97398V13.6482C6.51766 15.1189 13.4457 17.6378 20.0481 21.3833C15.3592 19.6563 10.1871 18.6009 4.8602 18.4508C9.99122 20.2118 15.5617 22.4881 20.8934 25.2455C15.2562 32.6411 8.29692 38.1523 0.152136 40.3417C10.4179 43.2274 24.8473 40.6114 34.0681 33.7169C36.7476 35.9162 39.1095 38.2859 41 40.8175V40.3699C40.0719 37.2498 38.7317 34.1511 37.0755 31.1252C38.1886 30.0117 39.1755 28.8155 40.01 27.54C35.131 31.8491 28.9083 34.3464 21.2228 36.7016C28.017 32.8231 33.8839 27.9911 38.485 22.8858C39.3533 21.8561 40.192 20.8019 41 19.7244V16.3994C34.4809 25.0033 24.634 32.7406 14.7565 36.841C25.3606 30.913 36.6823 19.5462 40.5552 8.82111C37.2238 13.5566 33.2223 17.7663 28.9513 21.361C33.9377 14.9601 38.3442 8.17447 40.9999 2.65765V0.500087H33.1955C31.4279 6.1632 29.1636 11.6438 26.4282 16.6541C20.1547 9.92075 12.8768 4.24491 6.20871 0.500087L0 0.5ZM14.3643 36.9843H14.407C14.3792 36.9956 14.3515 37.0073 14.3238 37.0185C14.3373 37.0073 14.3509 36.9956 14.3643 36.9843Z" fill="#3E7D60"/>
</svg>
